<svg xmlns="http://www.w3.org/2000/svg" width="1200" height="720" viewBox="0 0 1200 720">
  <rect width="1200" height="720" rx="18" fill="#07111f"/>
  <rect x="20" y="20" width="1160" height="680" rx="12" fill="#0b1728" stroke="#26364d" stroke-width="2"/>
  <g font-family="ui-monospace, SFMono-Regular, Menlo, monospace" font-size="18">
    <text x="42" y="58" fill="#22d3ee" font-weight="700">MEDULLA</text>
    <text x="172" y="58" fill="#f8fafc" font-weight="700">Overview</text>
    <text x="280" y="58" fill="#94a3b8">  Chat   Agents   Workers   Memory   Settings</text>
    <text x="1038" y="58" fill="#22c55e">● live</text>

    <rect x="42" y="84" width="340" height="142" rx="8" fill="#0e1c30" stroke="#334155"/>
    <text x="62" y="118" fill="#f8fafc" font-weight="700">Orchestration</text>
    <text x="62" y="154" fill="#cbd5e1">passes 3</text>
    <text x="62" y="184" fill="#cbd5e1">active model calls 1</text>
    <text x="62" y="214" fill="#facc15">decisions: 2 · E open</text>

    <rect x="118" y="132" width="964" height="484" rx="10" fill="#101d30" stroke="#facc15" stroke-width="2"/>
    <text x="146" y="168" fill="#facc15" font-weight="700">Decisions · 1/2 · ↑↓ select · Enter answer · d dismiss · Esc close</text>
    <line x1="140" y1="185" x2="1060" y2="185" stroke="#475569"/>

    <rect x="140" y="204" width="920" height="38" rx="5" fill="#164e63"/>
    <text x="156" y="230" fill="#f8fafc">❯ ? confirm: use schema v2? · dev · task-1</text>
    <text x="156" y="274" fill="#f8fafc">  ! Needs release approval · harness escalation</text>

    <text x="148" y="330" fill="#64748b" font-weight="700">PREPARED CONTEXT</text>
    <line x1="140" y1="344" x2="1060" y2="344" stroke="#334155"/>
    <text x="156" y="386" fill="#f8fafc">confirm: use schema v2?</text>
    <text x="156" y="424" fill="#e879f9">dev · task-1</text>
    <text x="156" y="474" fill="#22d3ee">boundary · Preserve the public API</text>
    <text x="156" y="538" fill="#94a3b8">The answer routes through the existing question.answer path.</text>

    <rect x="42" y="650" width="1116" height="30" rx="5" fill="#111f33"/>
    <text x="58" y="671" fill="#facc15">Decisions · 2 pending</text>
    <text x="1000" y="671" fill="#94a3b8">Ready</text>
  </g>
</svg>
