<svg xmlns="http://www.w3.org/2000/svg" width="1440" height="800" viewBox="0 0 1440 800">
  <rect width="1440" height="800" rx="18" fill="#111827"/>
  <rect x="20" y="20" width="1400" height="760" rx="12" fill="#071018" stroke="#334155" stroke-width="2"/>
  <g font-family="SFMono-Regular,Consolas,Liberation Mono,monospace" font-size="20">
    <text x="42" y="58" fill="#22d3ee" font-weight="700">MEDULLA</text>
    <text x="174" y="58" fill="#94a3b8">api.tinyhumans.ai</text>
    <text x="1140" y="58" fill="#94a3b8">Repo · commit subject</text>

    <text x="42" y="96" fill="#94a3b8"> Overview   Chat   Agents  </text>
    <rect x="340" y="72" width="76" height="32" rx="4" fill="#0e7490"/>
    <text x="350" y="96" fill="#f8fafc"> Repo </text>
    <text x="420" y="96" fill="#94a3b8">  Workers   Memory   Settings </text>

    <rect x="36" y="122" width="610" height="448" rx="10" fill="#0b1620" stroke="#475569"/>
    <rect x="664" y="122" width="740" height="448" rx="10" fill="#0b1620" stroke="#475569"/>
    <rect x="36" y="586" width="1368" height="142" rx="10" fill="#0b1620" stroke="#475569"/>

    <text x="56" y="150" fill="#22d3ee" font-weight="700"> Git ledger · Space mark · c commit </text>
    <text x="684" y="150" fill="#22d3ee" font-weight="700"> Diff · src/sdk/src/workspace/commit.rs · PgUp/PgDn </text>
    <text x="56" y="614" fill="#22d3ee" font-weight="700"> Recent commits </text>

    <text x="56" y="192" fill="#22d3ee" font-weight="700">/work/medulla</text>
    <text x="270" y="192" fill="#67e8f9">feat/peter-exact-committer</text>
    <text x="544" y="192" fill="#94a3b8">↑3 ↓0</text>
    <rect x="48" y="208" width="570" height="34" rx="3" fill="#0e7490"/>
    <text x="58" y="232" fill="#f8fafc">▸ [x]  M src/sdk/src/workspace/commit.rs</text>
    <text x="58" y="270" fill="#cbd5e1">  [x]  M src/tui/src/ui/app/render/repo.rs</text>
    <text x="58" y="308" fill="#cbd5e1">  [ ] ?? docs/screenshots/repo-tab.svg</text>
    <text x="56" y="360" fill="#22d3ee" font-weight="700">/work/clean-component</text>
    <text x="300" y="360" fill="#67e8f9">main</text>
    <text x="58" y="398" fill="#4ade80">✓ clean</text>

    <text x="684" y="192" fill="#fbbf24">--- WORKTREE ---</text>
    <text x="684" y="230" fill="#94a3b8">diff --git a/src/sdk/src/workspace/commit.rs</text>
    <text x="684" y="268" fill="#94a3b8">index 1f2902a..8ac0a1b 100644</text>
    <text x="684" y="306" fill="#4ade80">+ pub fn commit(workspace: &amp;Path, paths: &amp;[PathBuf],</text>
    <text x="684" y="344" fill="#4ade80">+     subject: &amp;str, options: &amp;CommitOptions)</text>
    <text x="684" y="382" fill="#4ade80">+     -&gt; Result&lt;CommitOutcome, CommitError&gt; {</text>
    <text x="684" y="420" fill="#cbd5e1">      // refuse foreign staged paths</text>
    <text x="684" y="458" fill="#4ade80">+     validate_shared_paths(&amp;named, options)?;</text>
    <text x="684" y="496" fill="#cbd5e1">  }</text>

    <text x="56" y="654" fill="#fbbf24">ff1d9d7</text>
    <text x="174" y="654" fill="#e2e8f0">feat(cli): add guarded commit command</text>
    <text x="56" y="688" fill="#fbbf24">9a37384</text>
    <text x="174" y="688" fill="#e2e8f0">feat(workspace): add exact-path committer</text>

    <rect x="310" y="330" width="820" height="124" rx="10" fill="#111827" stroke="#22d3ee" stroke-width="2"/>
    <text x="338" y="365" fill="#22d3ee" font-weight="700"> Commit marked paths — conventional subject </text>
    <rect x="338" y="382" width="764" height="44" rx="4" fill="#071018" stroke="#475569"/>
    <text x="354" y="411" fill="#f8fafc">feat(workspace): enforce exact commit boundary█</text>

    <text x="42" y="760" fill="#64748b">Repo · ↑↓ select · Space mark · c commit · PgUp/PgDn diff · r refresh</text>
  </g>
</svg>
