<svg xmlns="http://www.w3.org/2000/svg" width="1440" height="900" viewBox="0 0 1440 900">
  <rect width="1440" height="900" rx="18" fill="#111827"/>
  <rect x="20" y="20" width="1400" height="860" rx="12" fill="#071018" stroke="#334155" stroke-width="2"/>
  <g font-family="SFMono-Regular,Consolas,Liberation Mono,monospace" font-size="18">
    <text x="42" y="58" fill="#22d3ee" font-weight="700">MEDULLA</text>
    <text x="174" y="58" fill="#94a3b8">api.tinyhumans.ai</text>
    <text x="1160" y="58" fill="#94a3b8">Repo · refreshed</text>

    <text x="42" y="96" fill="#94a3b8"> Overview   Chat   Agents  </text>
    <rect x="334" y="72" width="76" height="32" rx="4" fill="#0e7490"/>
    <text x="344" y="95" fill="#f8fafc"> Repo </text>
    <text x="420" y="96" fill="#94a3b8"> Workers   Memory   Settings </text>

    <rect x="36" y="122" width="610" height="286" rx="10" fill="#0b1620" stroke="#475569"/>
    <rect x="664" y="122" width="740" height="286" rx="10" fill="#0b1620" stroke="#475569"/>
    <text x="56" y="150" fill="#22d3ee" font-weight="700"> Git ledger · r refresh · ↑↓ select </text>
    <text x="684" y="150" fill="#22d3ee" font-weight="700"> Diff · src/ship/client.rs </text>
    <text x="56" y="188" fill="#22d3ee" font-weight="700">/work/medulla</text>
    <text x="270" y="188" fill="#67e8f9">feat/peter-ship-panel</text>
    <text x="58" y="228" fill="#cbd5e1">   M src/sdk/src/ship/client.rs</text>
    <text x="58" y="264" fill="#cbd5e1">   M src/tui/src/ui/app/render/repo.rs</text>
    <text x="684" y="190" fill="#94a3b8">diff --git a/src/sdk/src/ship/client.rs</text>
    <text x="684" y="230" fill="#4ade80">+ pub fn inspect_workspaces(...)</text>
    <text x="684" y="268" fill="#4ade80">+ pub fn failing_log_excerpt(...)</text>

    <rect x="36" y="426" width="790" height="260" rx="10" fill="#0b1620" stroke="#475569"/>
    <rect x="844" y="426" width="560" height="260" rx="10" fill="#0b1620" stroke="#475569"/>
    <text x="56" y="456" fill="#22d3ee" font-weight="700"> Ship · j/k PR · o open · p create · r refresh </text>
    <text x="864" y="456" fill="#22d3ee" font-weight="700"> Failed check · PR #37 </text>
    <text x="56" y="496" fill="#22d3ee" font-weight="700">/work/medulla</text>
    <rect x="48" y="514" width="754" height="34" rx="3" fill="#0e7490"/>
    <text x="60" y="538" fill="#f8fafc">▸ #37   ✗ failing threads:2 · Add independent autoreview</text>
    <text x="60" y="578" fill="#4ade80">  #36   ✓ green   threads:0 · Add lessons ledger</text>
    <text x="60" y="618" fill="#fbbf24">  #35   ◌ pending threads:0 · Add decision queue</text>
    <text x="864" y="500" fill="#f87171">coverage / line gate</text>
    <text x="864" y="536" fill="#cbd5e1">expected at least 95.00%</text>
    <text x="864" y="572" fill="#cbd5e1">actual 94.99%</text>
    <text x="864" y="624" fill="#64748b">No merge action · approval stays human</text>

    <rect x="36" y="704" width="1368" height="110" rx="10" fill="#0b1620" stroke="#475569"/>
    <text x="56" y="734" fill="#22d3ee" font-weight="700"> Recent commits </text>
    <text x="56" y="772" fill="#fbbf24">1ece6b5</text>
    <text x="174" y="772" fill="#e2e8f0">Add Ship section to Repo tab</text>

    <text x="42" y="854" fill="#64748b">Visible, interruptible PR/CI state · create targets upstream · merging remains human</text>
  </g>
</svg>
